<?xml version="1.0" encoding="UTF-8"?>
<svg id="Layer_1" data-name="Layer 1" xmlns="http://www.w3.org/2000/svg" viewBox="0 0 401.96 119.61">
  <defs>
    <style>
      .cls-1 {
        fill: #522e24;
      }
    </style>
  </defs>
  <path class="cls-1" d="M356.54,22.31v71.94l-72.24-.6V22.91l72.24-.6ZM329.25,29.51l-18.06,5.2v52.35l18.06-6.19V29.51Z"/>
  <path class="cls-1" d="M211.26,35.9l5.81-1.6.21,2.4c10.97-2.87,23.97-5.89,25.06,9.61,8.3,2.15,5.64-2.96,6.35-8.11,1.22-8.83,11.32-7.25,17.57-5.23-.74,5.28,2.34,15.1-4.04,17.51-3.98,1.51-5.93.14-9.02-2.19-.85,1.5-2.3,2.21-4.02,2.4l-44.89-.02c-1.26,3.23-3.26,6.24-6.7,7.4-4.01,1.36-5.09.94-5.6-3.37,2.74-.14,6.81-2.91,6.81-5.81v-16.19h5.62v13.99h6.82v-10.79ZM256.9,36.79c-3.61.81-3,7.73.37,9.45,5.16,2.65,4.04-5.91,4.11-8.88-.33-.99-3.54-.78-4.47-.57ZM236.54,46.69c-.46-7.52-5.19-7.54-11.33-6.69-1.04.14-7.1,1.35-7.54,1.68-.84.63-.2,3.86-.39,5.01h19.26Z"/>
  <path class="cls-1" d="M71.99,22.31v22.58c0,2.17,5.31,2.32,6.33,1.3,1.63-1.62-1.4-10.02,3.97-13.43,3.93-2.49,10.63-1,14.93-.01.4.61-.15,8.81.04,10.55.5,4.53,6.52,4.47,6.72.72.02-.34-.29-.61-.29-.73v-10.59h5.62v13.79c0,.11-.7,1.67-.86,1.94-1.91,3.18-7.63,2.95-10.79,2.07-.83-.23-2.28-1.3-2.59-1.28-.36.02-2.31,1.58-3.31,1.78-3.13.64-5.92-.29-7.94-2.7-2.02,3.69-12.11,3.53-15.03,1.78-1.01-.61-2.42-2.89-2.42-3.98v-23.78h5.62ZM87.13,36.79c-3.37.78-2.95,7.72.36,9.45,5.29,2.77,4.09-5.9,4.11-8.88-.33-.99-3.54-.78-4.47-.57Z"/>
  <path class="cls-1" d="M147.44,93.85h-5.22v-11.39c0-.16-.58-2.62-.7-2.9-1.16-2.78-5.13-1.47-7.3-.87l.32,14.9c-.41,1.24-4.02.44-5.16.66v-11.79c0-.49-1-3.52-1.47-3.83-1.77-1.14-4.21-.25-6.15-.37v15.39c-1.28,1.2-3.55.37-5.22.6v-19.98c4.48-.74,8.32-1.68,12.86-.62.82.19,1.58.95,2.18.98,1.02.05,4.54-1.48,6.44-1.57,3.45-.15,7.53.93,8.75,4.46.11.32.67,2.78.67,2.93v13.39Z"/>
  <path class="cls-1" d="M176.34,46.69c-1.07-2.37-2.29-3.82-2.42-6.58-.51-10.75,10.74-9.24,18.02-7.36-.54,9.18,3.4,17.49-8.96,18.35-5.03.35-13.52.42-18.49,0-7.39-.63-7.72-5.94-7.43-12.14l6.04-1.86v7.79c0,.54,2.43,1.8,3.01,1.8h10.23ZM186.37,44.49c.36-2.07-.27-5.01,0-7.19,0-.99-6.8-1.59-6.82,3.19-.01,2.47,2.83,7.71,5.75,5.83.16-.11,1.05-1.7,1.07-1.83Z"/>
  <path class="cls-1" d="M120.96,22.31v24.38c1.47.11,5.62.37,5.62-1.8v-22.58h5.62v24.58c0,2.08-3.54,4.2-5.42,4.2h-13.44c.26-2.08.39-5.06,3.21-4.4v-24.38h4.41Z"/>
  <path class="cls-1" d="M188.38,65.08v8.39c9.09-1.74,13.63,2.77,12.86,11.8-.84,9.77-10.44,10.06-18.07,8.18v-28.38h5.22ZM188.38,89.85c6.27,1.6,7.77-2.85,7.24-8.21-.47-4.78-3.44-3.72-7.24-3.78v11.99Z"/>
  <path class="cls-1" d="M253.8,65.08v17.58l7.63-8.58,5.61-.2-6.84,8.21,6.85,11.57c.08.83-.04.53-.6.61-.84.12-4.45.14-5.02-.2-1.11-.66-4.25-7.55-5.42-8.99l-2.21-.39v9.59c-1.66-.23-3.94.6-5.22-.6v-28.58h5.22Z"/>
  <path class="cls-1" d="M98.08,94.25c-1.14-.22-4.75.58-5.16-.66l-.06-18.33c.05-.91.87-1.01,1.59-1.21,3.26-.89,9.54-1.4,12.68-.2,6.49,2.48,4.3,14.53,4.42,20.03l-.48.32-4.79-.32c-.85-3.16,1.02-12.96-1.39-15.01-1.43-1.22-5.39-1.04-6.82,0v15.39Z"/>
  <path class="cls-1" d="M243.77,94.25c-1.14-.22-4.75.58-5.16-.66-.63-3.23,1.07-12.29-1.08-14.51-1.44-1.49-5.48-1.28-7.01-.22v15.39h-4.82v-19.98c4.6-.63,12.66-2.78,16.27,1.18.44.48,1.79,2.98,1.79,3.41v15.39Z"/>
  <path class="cls-1" d="M65.17,93.65c-.25.8-3.07.75-3.74.59-.34-.08-.12-.83-.85-.83-.98,0-2.09.71-3.23.84-3.31.36-7.03-.28-8.21-3.82-2.28-6.85,5.38-9.26,10.82-8.97.63-5.97-5.17-3.67-8.85-3.36l-1.19-3.83c4.14-.75,11.92-2.89,14.4,1.84.18.35.85,2.52.85,2.75v14.79ZM59.95,84.66c-7.87-1.02-8.15,8.76-.2,5.2l.2-5.2Z"/>
  <path class="cls-1" d="M220.89,93.65c-.28.91-4.42,1.18-4.61-.58-3.51,2.16-9.92,1.87-11.42-2.63-2.3-6.9,5.38-9.24,10.81-8.97.46-6.1-5.46-3.67-9.23-3.19l-.8-4c4.02-.67,10.89-2.75,13.82,1.22.49.66,1.43,3.09,1.43,3.77v14.39ZM215.67,84.66c-7.92-.95-8.35,8.64-.19,5.21l.19-5.21Z"/>
  <path class="cls-1" d="M167.51,94.25c-1.46-.18-3.81.75-4.03-1.19-14.83,6.1-16.94-12.84-1.18-11.6.6-6.05-5.16-3.55-8.85-3.36l-1.18-3.83c4.32-.68,11.3-2.88,14.23,1.61.21.31,1.02,2.01,1.02,2.18v16.19ZM162.3,84.66c-3.6-.24-8.14,1.6-5.05,5.63.99.69,4.27.56,4.85-.42l.2-5.2Z"/>
  <path class="cls-1" d="M75.61,65.08v23.38c0,1.93,3.34,1.07,3.84,1.77l.18,4.02c-2.73-.03-6.42.53-8.21-2.02-.19-.28-1.02-2.04-1.02-2.18v-24.98h5.22Z"/>
  <rect class="cls-1" x="138.21" y="22.31" width="5.62" height="28.78"/>
  <path class="cls-1" d="M48.31,51.09l1.26-4.34,1.95-.05c-2.95-7.29,4.51-9.52,10.44-8.79l-1.21,4.8c-1.82-1-5.62.87-4.04,3.02,1.12,1.52,4.36.82,6.05.97l-1.81,4.39h-12.64Z"/>
  <rect class="cls-1" x="82.83" y="73.87" width="5.22" height="19.98"/>
  <path class="cls-1" d="M106,22.38c4.49-.91,5.43,6.16.72,5.95-3.68-.16-3.81-5.33-.72-5.95Z"/>
  <path class="cls-1" d="M183.36,22.49c3.75,0,4.07,6.28-.41,5.85-3.58-.35-3.5-5.86.41-5.85Z"/>
  <path class="cls-1" d="M84.73,65.54c3.82-.77,4.88,4.76,1.41,5.45-4.01.81-4.58-4.82-1.41-5.45Z"/>
  <path class="cls-1" d="M115.34,58.68c.72-3.33,1.07-6.62,5.38-5.62.65,1.5-.32,2.21-1.76,2.22l-.41,1.4h2.81s-.4,2-.4,2h-5.62Z"/>
</svg>